<svg width="263" height="263" viewBox="0 0 263 263" fill="none" xmlns="http://www.w3.org/2000/svg">
<path d="M262 1H1V262H262V1Z" fill="#040405" stroke="#040405" stroke-miterlimit="10"/>
<path d="M131.57 83.9298C157.98 84.1098 179.2 105.45 179.04 131.68C178.88 158.07 157.46 179.27 131.15 179.07C104.87 178.87 83.77 157.44 83.95 131.15C84.13 105 105.56 83.7498 131.57 83.9298ZM96.29 152.88C96.52 152.89 96.68 152.91 96.84 152.91C104.27 152.91 111.7 152.94 119.13 152.89C120.59 152.88 122.08 152.66 123.5 152.3C127.1 151.39 130.1 149.53 131.64 146C133.47 141.8 133.39 137.51 131.53 133.33C130.55 131.12 128.78 129.75 126.37 129.3C126.08 129.25 125.78 129.21 125.48 129.16C125.51 129.08 125.51 129.04 125.52 129.04C125.75 128.96 125.97 128.88 126.2 128.8C128.55 127.99 130.25 126.45 130.86 124.03C131.22 122.63 131.36 121.11 131.28 119.66C131.05 115.57 129.2 112.41 125.44 110.55C123.43 109.55 121.27 109.19 119.04 109.19C111.71 109.19 104.38 109.19 97.04 109.19C96.8 109.19 96.57 109.21 96.29 109.22C96.29 123.78 96.29 138.29 96.29 152.88ZM166.64 139.28C166.92 135.35 166.58 131.61 164.95 128.07C163.2 124.26 160.25 121.87 156.2 120.86C153.19 120.12 150.15 120.12 147.13 120.73C143.24 121.51 140.03 123.44 137.85 126.8C134.68 131.68 133.81 137.01 135.28 142.64C136.63 147.82 139.81 151.41 145.02 152.94C149.56 154.27 154.15 154.23 158.67 152.77C160.9 152.05 162.85 150.86 164.29 148.96C165.8 146.98 166.37 144.71 166.36 142.19C163.97 142.19 161.65 142.19 159.33 142.19C159.23 142.19 159.11 142.15 159.05 142.2C158.9 142.31 158.69 142.45 158.67 142.61C158.35 144.72 156.98 145.87 155.07 146.45C153.26 147 151.4 147.09 149.54 146.71C146.52 146.08 144.64 144.14 144.13 141.11C144.03 140.53 144.03 139.94 143.98 139.29C151.56 139.28 159.03 139.28 166.64 139.28ZM142.05 117.11C148.06 117.11 154 117.11 159.97 117.11C159.97 115.32 159.97 113.57 159.97 111.81C153.97 111.81 148.03 111.81 142.05 111.81C142.05 113.59 142.05 115.32 142.05 117.11Z" fill="#F8D909"/>
<path d="M96.29 152.88C96.29 138.28 96.29 123.78 96.29 109.22C96.57 109.21 96.81 109.19 97.04 109.19C104.37 109.19 111.7 109.19 119.04 109.19C121.27 109.19 123.43 109.55 125.44 110.55C129.2 112.42 131.05 115.57 131.28 119.66C131.36 121.11 131.22 122.62 130.86 124.03C130.24 126.45 128.55 127.99 126.2 128.8C125.97 128.88 125.75 128.95 125.52 129.04C125.51 129.04 125.5 129.08 125.48 129.16C125.78 129.21 126.08 129.24 126.37 129.3C128.79 129.75 130.55 131.12 131.53 133.33C133.39 137.52 133.47 141.8 131.64 146C130.1 149.52 127.11 151.39 123.5 152.3C122.08 152.66 120.59 152.88 119.13 152.89C111.7 152.95 104.27 152.92 96.84 152.91C96.68 152.91 96.51 152.89 96.29 152.88ZM106.31 145.16C106.64 145.16 106.93 145.16 107.21 145.16C110.18 145.16 113.16 145.16 116.13 145.15C117.17 145.15 118.21 145.15 119.24 145.06C121.36 144.88 122.82 143.68 123.3 141.61C123.53 140.59 123.62 139.49 123.53 138.45C123.23 135.02 121.14 133.33 118.09 133.42C114.42 133.52 110.74 133.45 107.06 133.45C106.81 133.45 106.55 133.45 106.29 133.45C106.31 137.41 106.31 141.24 106.31 145.16ZM106.31 126.71C110.51 126.71 114.62 126.74 118.73 126.7C120.06 126.69 121.12 126.06 121.59 124.74C122.24 122.89 122.32 120.99 121.7 119.12C121.23 117.7 120.1 116.96 118.61 116.96C114.79 116.95 110.97 116.95 107.15 116.95C106.89 116.95 106.63 116.97 106.32 116.98C106.31 120.24 106.31 123.44 106.31 126.71Z" fill="#040404"/>
<path d="M166.64 139.28C159.03 139.28 151.56 139.28 143.96 139.28C144.01 139.92 144.02 140.52 144.11 141.1C144.62 144.13 146.5 146.07 149.52 146.7C151.38 147.09 153.24 146.99 155.05 146.44C156.96 145.86 158.33 144.71 158.65 142.6C158.67 142.45 158.88 142.31 159.03 142.19C159.09 142.14 159.22 142.18 159.31 142.18C161.63 142.18 163.94 142.18 166.34 142.18C166.35 144.71 165.78 146.97 164.27 148.95C162.83 150.85 160.88 152.04 158.65 152.76C154.13 154.22 149.54 154.26 145 152.93C139.79 151.41 136.6 147.82 135.26 142.63C133.8 137 134.67 131.67 137.83 126.79C140.01 123.43 143.22 121.5 147.11 120.72C150.13 120.11 153.18 120.11 156.18 120.85C160.23 121.85 163.18 124.25 164.93 128.06C166.58 131.61 166.92 135.36 166.64 139.28ZM143.95 133.41C148.7 133.41 153.44 133.41 158.18 133.41C158.28 130.34 156.41 127.65 153.64 126.99C152.74 126.77 151.77 126.73 150.84 126.77C147.34 126.92 144.25 129.92 143.95 133.41Z" fill="#040404"/>
<path d="M142.05 117.11C142.05 115.32 142.05 113.59 142.05 111.81C148.03 111.81 153.97 111.81 159.97 111.81C159.97 113.57 159.97 115.31 159.97 117.11C154 117.11 148.06 117.11 142.05 117.11Z" fill="#040404"/>
<path d="M106.31 145.16C106.31 141.24 106.31 137.41 106.31 133.46C106.57 133.46 106.83 133.46 107.08 133.46C110.76 133.46 114.43 133.54 118.11 133.43C121.16 133.34 123.25 135.03 123.55 138.46C123.64 139.5 123.55 140.6 123.32 141.62C122.84 143.69 121.38 144.88 119.26 145.07C118.23 145.16 117.18 145.15 116.15 145.16C113.18 145.17 110.2 145.17 107.23 145.17C106.93 145.16 106.65 145.16 106.31 145.16Z" fill="#F8D909"/>
<path d="M106.31 126.71C106.31 123.44 106.31 120.23 106.31 116.98C106.61 116.97 106.88 116.95 107.14 116.95C110.96 116.95 114.78 116.95 118.6 116.96C120.1 116.96 121.22 117.71 121.69 119.12C122.31 120.99 122.23 122.89 121.58 124.74C121.12 126.07 120.06 126.69 118.72 126.7C114.62 126.74 110.51 126.71 106.31 126.71Z" fill="#F8D909"/>
<path d="M143.95 133.41C144.25 129.92 147.34 126.92 150.83 126.77C151.76 126.73 152.73 126.78 153.63 126.99C156.41 127.65 158.28 130.34 158.17 133.41C153.44 133.41 148.7 133.41 143.95 133.41Z" fill="#F8D909"/>
</svg>
