<svg width="263" height="262" viewBox="0 0 263 262" fill="none" xmlns="http://www.w3.org/2000/svg">
<path d="M261.67 0H0.669922V261H261.67V0Z" fill="#040405" stroke="#040405" stroke-miterlimit="10"/>
<path d="M131.32 81.05C144.68 81.05 158.03 81.03 171.39 81.06C177.64 81.07 182.48 85.91 182.49 92.16C182.51 111.45 182.51 130.73 182.49 150.02C182.48 156.2 177.64 161 171.42 161.02C161.06 161.05 150.7 161.03 140.34 161.04C138.6 161.04 138.45 161.19 138.45 162.88C138.45 164.24 138.47 165.61 138.46 166.97C138.45 167.83 138.78 168.24 139.69 168.36C142.4 168.72 145.07 169.3 147.51 170.57C148.37 171.01 149.2 171.61 149.86 172.31C150.79 173.29 150.75 174.47 149.77 175.41C149.08 176.09 148.25 176.69 147.38 177.11C143.89 178.79 140.12 179.39 136.31 179.72C130.23 180.25 124.18 180 118.27 178.34C116.68 177.89 115.11 177.23 113.69 176.39C111.14 174.88 111.18 172.86 113.69 171.25C116.09 169.7 118.82 169.09 121.57 168.56C123.88 168.12 123.89 168.14 123.88 165.79C123.88 164.73 123.87 163.68 123.87 162.62C123.86 161.27 123.63 161.03 122.24 161.03C114.98 161.03 107.72 161.03 100.47 161.03C97.3699 161.03 94.2699 161.04 91.1699 161.03C84.5899 160.99 79.8499 156.22 79.8499 149.64C79.8399 130.66 79.8399 111.68 79.8499 92.7C79.8499 85.78 84.55 81.06 91.46 81.05C104.75 81.04 118.04 81.05 131.33 81.05C131.32 81.04 131.32 81.05 131.32 81.05ZM131.05 153.89V153.9C140.73 153.9 150.4 153.9 160.08 153.9C163.79 153.9 167.51 153.91 171.22 153.89C173.73 153.87 175.33 152.27 175.35 149.82C175.36 148.76 175.35 147.71 175.35 146.65C175.35 128.62 175.36 110.6 175.35 92.57C175.35 89.71 173.79 88.19 170.9 88.18C169.4 88.18 167.9 88.19 166.4 88.19C141.39 88.19 116.38 88.19 91.3699 88.19C88.5299 88.19 86.9899 89.71 86.9899 92.53C86.9899 111.54 86.9899 130.56 86.9899 149.57C86.9899 152.36 88.48 153.88 91.28 153.88C104.54 153.89 117.79 153.89 131.05 153.89Z" fill="#F8D909"/>
<path d="M123.65 146.49C121.12 146.48 119.61 144.14 120.52 141.55C122.14 136.96 123.79 132.38 125.43 127.8C128.7 118.67 131.97 109.54 135.24 100.41C135.84 98.73 137.35 97.82 139.08 98.06C141.48 98.41 142.69 100.58 141.81 103.08C140.19 107.67 138.54 112.25 136.9 116.83C133.69 125.8 130.48 134.77 127.26 143.74C126.58 145.63 125.42 146.49 123.65 146.49Z" fill="#F8D909"/>
<path d="M115.04 109.95C114.48 110.89 114.11 111.87 113.44 112.57C110.95 115.18 108.36 117.7 105.81 120.25C104.37 121.69 104.37 122.43 105.78 123.85C108.33 126.4 110.89 128.95 113.43 131.51C114.67 132.76 115.04 134.31 114.44 135.7C113.31 138.32 110.58 138.85 108.56 136.84C104.6 132.9 100.65 128.95 96.71 124.99C94.93 123.2 94.9299 121.25 96.7199 119.44C100.64 115.51 104.56 111.58 108.5 107.67C110.18 106 112.41 105.86 113.73 107.42C114.29 108.08 114.56 108.99 115.04 109.95Z" fill="#F8D909"/>
<path d="M147.7 134.63C147.68 133.5 148.13 132.59 148.91 131.81C151.47 129.26 154.02 126.71 156.56 124.16C157.93 122.79 157.94 121.98 156.59 120.63C153.99 118.03 151.37 115.45 148.8 112.82C146.83 110.81 147.32 107.91 149.76 106.94C151.11 106.4 152.43 106.58 153.46 107.6C157.68 111.76 161.87 115.94 166.02 120.16C167.3 121.46 167.34 123.47 166.04 124.8C161.95 128.99 157.82 133.14 153.62 137.22C152.53 138.28 151.02 138.38 149.59 137.75C148.27 137.16 147.73 136.03 147.7 134.63Z" fill="#F8D909"/>
</svg>
