<svg width="263" height="263" viewBox="0 0 263 263" fill="none" xmlns="http://www.w3.org/2000/svg">
<path d="M262.25 0.75H1.25V261.75H262.25V0.75Z" fill="#040405" stroke="black" stroke-miterlimit="10"/>
<path d="M113.52 168.48C113.52 171.74 113.59 174.85 113.49 177.97C113.43 179.8 111.77 180.63 109.78 179.95C105 178.32 100.53 176.05 96.53 172.97C82.47 162.17 75.53 147.83 76.19 130.15C77.06 106.75 94.09 87.3698 117.11 83.0598C143.04 78.1998 168.94 95.4798 174.48 121.33C179.45 144.53 168.47 167.41 147.36 177.72C145.63 178.57 143.82 179.27 142 179.93C139.74 180.75 138.23 179.66 138.23 177.27C138.24 173.24 138.25 169.21 138.3 165.18C138.35 161.35 137.98 157.67 135.11 154.7C137.27 154.26 139.34 153.94 141.35 153.42C151.11 150.9 156.54 144.4 157.45 134.33C157.75 131.01 157.88 127.71 157.02 124.45C156.31 121.73 155.07 119.29 153.25 117.15C152.8 116.62 152.64 116.2 152.86 115.47C154.06 111.55 153.66 107.67 152.4 103.83C152.15 103.07 151.68 102.77 150.99 102.93C149 103.38 146.95 103.7 145.07 104.46C143 105.3 141.13 106.61 139.13 107.64C138.66 107.88 138.01 108.05 137.51 107.93C129.76 106.06 122.03 106.06 114.28 107.94C113.79 108.06 113.11 107.91 112.67 107.63C109.37 105.59 106.03 103.65 102.11 103.02C101.92 102.99 101.72 102.95 101.52 102.93C99.85 102.77 99.75 102.84 99.25 104.41C98.07 108.11 97.87 111.83 98.95 115.6C99.06 116 98.93 116.62 98.67 116.95C95 121.46 93.75 126.64 94.19 132.35C94.43 135.52 94.91 138.62 96.09 141.59C98.81 148.4 104.15 151.99 111.04 153.62C112.84 154.05 114.68 154.31 116.63 154.67C115.01 156.48 114.1 158.58 113.72 160.92C113.68 161.18 113.3 161.47 113.01 161.58C107.59 163.73 102.56 162.69 99.35 157.42C97.7 154.71 95.52 152.69 92.29 152.12C91.58 151.99 90.79 152.07 90.08 152.24C89.15 152.46 89 153.08 89.64 153.82C90 154.23 90.42 154.62 90.89 154.9C93.42 156.39 95.24 158.58 96.15 161.27C98.1 167.06 103.72 169.5 109.75 168.95C110.93 168.84 112.1 168.66 113.52 168.48Z" fill="#F8D909"/>
</svg>
