<svg width="262" height="262" viewBox="0 0 262 262" fill="none" xmlns="http://www.w3.org/2000/svg">
<path d="M261.5 0.5H0.5V261.5H261.5V0.5Z" fill="#040405" stroke="#040405" stroke-miterlimit="10"/>
<path d="M107.62 133.59C107.62 134.18 107.62 134.56 107.62 134.94C107.62 145.28 107.62 155.62 107.62 165.96C107.62 168.13 106.92 168.84 104.78 168.85C99.68 168.85 94.58 168.87 89.48 168.85C84.46 168.83 81.28 165.61 81.28 160.58C81.28 142.63 81.28 124.67 81.28 106.72C81.28 100.92 84.52 96.0899 89.76 94.0599C94.92 92.0599 100.51 93.5199 104.45 97.7699C105.4 98.7999 106.58 99.6299 107.7 100.48C115.21 106.22 122.73 111.95 130.25 117.67C130.45 117.82 130.65 117.96 130.92 118.16C131.87 117.44 132.82 116.73 133.77 116C141.31 110.24 148.86 104.49 156.38 98.7199C157.19 98.0999 157.88 97.3299 158.66 96.6599C162.89 92.9999 167.68 92.1099 172.78 94.3299C177.89 96.5599 180.65 100.69 180.67 106.27C180.76 124.51 180.71 142.74 180.7 160.98C180.7 165.44 177.55 168.73 173.05 168.81C167.63 168.91 162.21 168.85 156.8 168.83C155.11 168.82 154.37 167.97 154.36 166.18C154.36 155.73 154.36 145.29 154.36 134.84C154.36 134.45 154.36 134.06 154.36 133.49C154.01 133.73 153.76 133.87 153.53 134.05C146.63 139.31 139.74 144.57 132.85 149.83C131.23 151.07 130.6 151.07 129 149.85C122.19 144.65 115.38 139.46 108.57 134.26C108.32 134.08 108.06 133.9 107.62 133.59ZM130.86 145.94C131.01 145.86 131.08 145.84 131.14 145.8C138.71 140.03 146.29 134.26 153.83 128.46C154.14 128.22 154.34 127.63 154.34 127.21C154.37 120.34 154.36 113.47 154.36 106.6C154.36 106.34 154.31 106.09 154.27 105.74C153.94 105.98 153.7 106.14 153.48 106.31C146.56 111.59 139.64 116.88 132.71 122.16C131.24 123.28 130.57 123.28 129.12 122.18C123.77 118.11 118.42 114.03 113.07 109.95C111.31 108.61 109.54 107.27 107.68 105.86C107.64 106.15 107.61 106.28 107.61 106.41C107.61 113.46 107.6 120.5 107.63 127.55C107.63 127.92 107.91 128.4 108.21 128.65C109.12 129.43 110.11 130.13 111.06 130.86C117.66 135.86 124.25 140.89 130.86 145.94ZM158.61 164.6C159.03 164.6 159.31 164.6 159.59 164.6C163.91 164.6 168.23 164.61 172.54 164.6C175.14 164.59 176.45 163.26 176.45 160.66C176.45 146.33 176.45 131.99 176.45 117.66C176.45 117.36 176.42 117.07 176.39 116.66C176.02 116.92 175.76 117.09 175.52 117.28C170.15 121.38 164.79 125.49 159.4 129.57C158.79 130.03 158.59 130.5 158.59 131.24C158.61 141.96 158.61 152.69 158.61 163.41C158.61 163.74 158.61 164.09 158.61 164.6ZM85.52 116.68C85.52 117.26 85.52 117.57 85.52 117.88C85.52 132.11 85.52 146.35 85.52 160.58C85.52 163.29 86.83 164.59 89.58 164.59C93.79 164.6 98.01 164.59 102.22 164.59C102.57 164.59 102.91 164.56 103.3 164.54C103.32 164.24 103.36 164 103.36 163.76C103.36 152.85 103.37 141.95 103.33 131.04C103.33 130.61 103 130.05 102.65 129.78C99.73 127.49 96.76 125.25 93.81 122.99C91.12 120.95 88.42 118.89 85.52 116.68ZM103.35 124.93C103.35 118.37 103.46 112.03 103.31 105.71C103.21 101.37 99.43 97.7299 95.18 97.4899C90.49 97.2199 86.46 100.2 85.74 104.68C85.44 106.51 85.61 108.42 85.51 110.28C85.47 111.03 85.71 111.51 86.32 111.96C89.01 113.97 91.67 116.02 94.34 118.06C97.28 120.31 100.23 122.55 103.35 124.93ZM158.61 124.83C163.85 120.83 168.81 116.89 173.95 113.2C175.88 111.82 176.77 110.38 176.51 108C176.32 106.25 176.45 104.47 175.72 102.8C174.06 98.9999 169.93 96.7899 165.92 97.5699C161.75 98.3799 158.67 101.94 158.63 106.16C158.58 111.85 158.61 117.55 158.61 123.24C158.61 123.7 158.61 124.15 158.61 124.83Z" fill="black"/>
<path d="M130.86 145.94C124.25 140.89 117.66 135.87 111.08 130.84C110.12 130.11 109.14 129.41 108.23 128.63C107.93 128.37 107.65 127.9 107.65 127.53C107.62 120.48 107.62 113.44 107.63 106.39C107.63 106.26 107.66 106.13 107.7 105.84C109.56 107.25 111.33 108.59 113.09 109.93C118.44 114 123.79 118.08 129.14 122.16C130.59 123.27 131.26 123.27 132.73 122.14C139.65 116.86 146.57 111.58 153.5 106.29C153.72 106.12 153.95 105.96 154.29 105.72C154.33 106.07 154.38 106.33 154.38 106.58C154.38 113.45 154.39 120.32 154.36 127.19C154.36 127.62 154.16 128.2 153.85 128.44C146.3 134.24 138.73 140.01 131.16 145.78C131.08 145.84 131.01 145.86 130.86 145.94Z" fill="#F8D909" stroke="#F8D909" stroke-miterlimit="10"/>
<path d="M158.61 164.6C158.61 164.1 158.61 163.75 158.61 163.4C158.61 152.68 158.62 141.95 158.59 131.23C158.59 130.49 158.79 130.01 159.4 129.56C164.79 125.48 170.15 121.37 175.52 117.27C175.77 117.08 176.03 116.91 176.39 116.65C176.41 117.06 176.45 117.36 176.45 117.65C176.45 131.98 176.45 146.32 176.45 160.65C176.45 163.25 175.13 164.58 172.54 164.59C168.22 164.6 163.9 164.59 159.59 164.59C159.32 164.6 159.04 164.6 158.61 164.6Z" fill="#F8D909" stroke="#F8D909" stroke-miterlimit="10"/>
<path d="M85.52 116.68C88.42 118.89 91.12 120.94 93.81 123C96.76 125.25 99.73 127.5 102.65 129.79C103 130.07 103.33 130.62 103.33 131.05C103.37 141.96 103.36 152.86 103.36 163.77C103.36 164.01 103.33 164.25 103.3 164.55C102.91 164.57 102.56 164.6 102.22 164.6C98.01 164.6 93.79 164.61 89.58 164.6C86.83 164.6 85.52 163.3 85.52 160.59C85.52 146.36 85.52 132.12 85.52 117.89C85.52 117.57 85.52 117.26 85.52 116.68Z" fill="#F8D909" stroke="#F8D909" stroke-miterlimit="10"/>
<path d="M103.35 124.93C100.23 122.55 97.28 120.31 94.34 118.06C91.67 116.02 89.01 113.97 86.32 111.96C85.71 111.51 85.47 111.03 85.51 110.28C85.61 108.41 85.45 106.51 85.74 104.68C86.46 100.19 90.49 97.2201 95.18 97.4901C99.43 97.7301 103.21 101.37 103.31 105.71C103.46 112.03 103.35 118.37 103.35 124.93Z" fill="#F8D909" stroke="#F8D909" stroke-miterlimit="10"/>
<path d="M158.61 124.83C158.61 124.15 158.61 123.7 158.61 123.25C158.61 117.56 158.58 111.86 158.63 106.17C158.67 101.95 161.74 98.3897 165.92 97.5797C169.93 96.7997 174.06 99.0097 175.72 102.81C176.45 104.48 176.31 106.26 176.51 108.01C176.77 110.39 175.88 111.82 173.95 113.21C168.81 116.89 163.85 120.83 158.61 124.83Z" fill="#F8D909" stroke="#F8D909" stroke-miterlimit="10"/>
</svg>
