<svg width="263" height="262" viewBox="0 0 263 262" fill="none" xmlns="http://www.w3.org/2000/svg">
<path d="M261.57 0.5H0.570007V261.5H261.57V0.5Z" fill="#040405" stroke="#040405" stroke-miterlimit="10"/>
<path d="M176.01 95.8202C176.01 119.27 176.01 142.72 176.01 166.17C175.98 166.29 175.95 166.41 175.93 166.53C175.77 167.4 175.73 168.3 175.43 169.12C174.08 172.9 171.41 175.14 167.45 175.82C167.01 175.89 166.57 175.94 166.12 175.99C142.74 175.99 119.36 175.99 95.98 175.99C95.8 175.96 95.62 175.91 95.43 175.9C93 175.75 90.91 174.81 89.17 173.13C87.08 171.11 86.12 168.6 86.12 165.72C86.11 142.63 86.11 119.53 86.13 96.4402C86.13 95.6302 86.21 94.8202 86.35 94.0202C87.06 90.0202 90.61 86.6502 94.61 86.1602C95.07 86.1002 95.52 86.0502 95.98 85.9902C119.36 85.9902 142.74 85.9902 166.12 85.9902C166.75 86.0702 167.38 86.1402 168 86.2502C171.97 86.9502 175.35 90.5302 175.84 94.5302C175.89 94.9702 175.95 95.4002 176.01 95.8202ZM134.75 125.81C134.75 124.01 134.75 122.34 134.75 120.66C134.75 120.1 134.75 120.1 134.21 120.1C130.25 120.1 126.29 120.1 122.33 120.1C121.8 120.1 121.8 120.1 121.8 120.63C121.8 134.77 121.8 148.9 121.8 163.04C121.8 163.57 121.8 163.57 122.34 163.57C126.29 163.57 130.23 163.57 134.18 163.57C134.75 163.57 134.75 163.57 134.75 163C134.75 155.51 134.73 148.03 134.77 140.54C134.78 139.35 134.95 138.15 135.22 136.99C135.77 134.64 137.02 132.78 139.31 131.77C140.82 131.1 142.41 130.98 144.04 131.17C146.51 131.46 148.19 132.8 149.16 135.06C149.86 136.69 150.11 138.42 150.12 140.17C150.15 147.77 150.13 155.37 150.13 162.97C150.13 163.57 150.13 163.57 150.72 163.57C154.82 163.57 158.91 163.57 163.01 163.57C163.11 163.57 163.23 163.6 163.3 163.56C163.42 163.49 163.53 163.38 163.58 163.26C163.63 163.14 163.59 162.99 163.59 162.85C163.59 154.36 163.6 145.88 163.58 137.39C163.58 136.13 163.52 134.87 163.44 133.61C163.32 131.69 162.92 129.84 162.24 128.04C160.95 124.64 158.75 122.03 155.46 120.43C152.29 118.89 148.93 118.53 145.47 118.96C142.69 119.3 140.22 120.4 138.04 122.15C136.78 123.16 135.7 124.35 134.75 125.81ZM113.32 141.83C113.32 134.76 113.32 127.68 113.32 120.61C113.32 120.1 113.32 120.1 112.8 120.1C108.64 120.1 104.48 120.1 100.33 120.1C99.8 120.1 99.8 120.1 99.8 120.65C99.8 121.72 99.8 122.8 99.8 123.87C99.8 136.89 99.8 149.91 99.8 162.93C99.8 163.56 99.8 163.56 100.41 163.56C104.53 163.56 108.65 163.56 112.77 163.56C113.32 163.56 113.32 163.56 113.32 163C113.32 155.95 113.32 148.89 113.32 141.83ZM106.48 114.53C110.58 114.6 114.47 111.29 114.48 106.5C114.49 102.02 110.98 98.4602 106.52 98.4502C102.08 98.4402 98.52 101.97 98.52 106.5C98.52 111.26 102.39 114.58 106.48 114.53Z" fill="#F8D909"/>
</svg>
