<svg xmlns="http://www.w3.org/2000/svg" version="1.1" xmlns:xlink="http://www.w3.org/1999/xlink" xmlns:svgjs="http://svgjs.dev/svgjs" viewBox="0 0 1066 800"><defs><linearGradient x1="50%" y1="0%" x2="50%" y2="100%" id="oooscillate-grad"><stop stop-color="hsl(185, 53%, 55%)" stop-opacity="1" offset="0%"></stop><stop stop-color="hsl(0, 73%, 55%)" stop-opacity="1" offset="100%"></stop></linearGradient></defs><g stroke-width="2.5" stroke="url(#oooscillate-grad)" fill="none" stroke-linecap="round"><path d="M 0 644 Q 266.5 -100 533 400 Q 799.5 900 1066 644" opacity="0.70"></path><path d="M 0 621 Q 266.5 -100 533 400 Q 799.5 900 1066 621" opacity="0.61"></path><path d="M 0 598 Q 266.5 -100 533 400 Q 799.5 900 1066 598" opacity="0.09"></path><path d="M 0 575 Q 266.5 -100 533 400 Q 799.5 900 1066 575" opacity="0.35"></path><path d="M 0 552 Q 266.5 -100 533 400 Q 799.5 900 1066 552" opacity="0.22"></path><path d="M 0 529 Q 266.5 -100 533 400 Q 799.5 900 1066 529" opacity="0.43"></path><path d="M 0 506 Q 266.5 -100 533 400 Q 799.5 900 1066 506" opacity="0.41"></path><path d="M 0 483 Q 266.5 -100 533 400 Q 799.5 900 1066 483" opacity="0.53"></path><path d="M 0 460 Q 266.5 -100 533 400 Q 799.5 900 1066 460" opacity="0.60"></path><path d="M 0 437 Q 266.5 -100 533 400 Q 799.5 900 1066 437" opacity="0.41"></path><path d="M 0 414 Q 266.5 -100 533 400 Q 799.5 900 1066 414" opacity="0.17"></path><path d="M 0 391 Q 266.5 -100 533 400 Q 799.5 900 1066 391" opacity="0.84"></path><path d="M 0 368 Q 266.5 -100 533 400 Q 799.5 900 1066 368" opacity="0.66"></path><path d="M 0 345 Q 266.5 -100 533 400 Q 799.5 900 1066 345" opacity="0.69"></path><path d="M 0 322 Q 266.5 -100 533 400 Q 799.5 900 1066 322" opacity="0.94"></path><path d="M 0 299 Q 266.5 -100 533 400 Q 799.5 900 1066 299" opacity="0.31"></path><path d="M 0 276 Q 266.5 -100 533 400 Q 799.5 900 1066 276" opacity="0.70"></path><path d="M 0 253 Q 266.5 -100 533 400 Q 799.5 900 1066 253" opacity="0.86"></path><path d="M 0 230 Q 266.5 -100 533 400 Q 799.5 900 1066 230" opacity="0.31"></path><path d="M 0 207 Q 266.5 -100 533 400 Q 799.5 900 1066 207" opacity="0.44"></path><path d="M 0 184 Q 266.5 -100 533 400 Q 799.5 900 1066 184" opacity="0.46"></path><path d="M 0 161 Q 266.5 -100 533 400 Q 799.5 900 1066 161" opacity="0.53"></path><path d="M 0 138 Q 266.5 -100 533 400 Q 799.5 900 1066 138" opacity="0.58"></path><path d="M 0 115 Q 266.5 -100 533 400 Q 799.5 900 1066 115" opacity="0.64"></path><path d="M 0 92 Q 266.5 -100 533 400 Q 799.5 900 1066 92" opacity="0.15"></path><path d="M 0 69 Q 266.5 -100 533 400 Q 799.5 900 1066 69" opacity="0.63"></path><path d="M 0 46 Q 266.5 -100 533 400 Q 799.5 900 1066 46" opacity="0.64"></path></g></svg>