<svg width="263" height="263" viewBox="0 0 263 263" fill="none" xmlns="http://www.w3.org/2000/svg">
<path d="M262 1H1V262H262V1Z" fill="#040405" stroke="#040405" stroke-miterlimit="10"/>
<path d="M164.29 176.81C139.48 176.81 114.68 176.81 89.87 176.81C89.74 176.75 89.61 176.67 89.48 176.64C85.75 175.83 83.26 173.61 81.98 170.03C81.79 169.51 81.66 168.98 81.51 168.45C81.51 143.65 81.51 118.85 81.51 94.0502C81.56 93.9502 81.64 93.8502 81.66 93.7402C82.64 88.8802 86.54 85.6802 91.49 85.6802C115.32 85.6802 139.14 85.6802 162.97 85.6802C168.24 85.6802 172.65 90.0902 172.65 95.3602C172.65 119.27 172.65 143.18 172.65 167.09C172.65 171.32 169.76 175.19 165.71 176.41C165.24 176.55 164.76 176.67 164.29 176.81ZM112.04 111.62C101.28 111.59 92.57 120.29 92.51 131.13C92.45 142 101.09 150.79 111.91 150.86C122.68 150.93 131.48 142.15 131.51 131.3C131.55 120.46 122.84 111.65 112.04 111.62ZM133.31 131.29C133.49 133.15 133.59 135.02 133.88 136.86C134.11 138.32 134.49 139.76 134.95 141.16C135.8 143.78 137 146.22 139.13 148.07C141.75 150.33 144.75 150.28 147.31 147.96C148.9 146.52 150 144.73 150.77 142.74C153.57 135.52 153.61 128.22 151.23 120.9C150.44 118.46 149.22 116.21 147.25 114.47C144.72 112.22 141.79 112.18 139.21 114.35C137.54 115.76 136.45 117.58 135.61 119.57C134.02 123.31 133.42 127.24 133.31 131.29ZM161.66 131.27C161.74 131.26 161.83 131.25 161.91 131.24C161.52 127.45 161.21 123.64 160.68 119.86C160.47 118.37 159.89 116.89 159.25 115.51C158.73 114.36 157.82 114.4 157.19 115.49C156.8 116.18 156.42 116.93 156.29 117.69C155.78 120.66 155.19 123.63 154.98 126.63C154.58 132.26 154.71 137.89 155.95 143.43C156.24 144.74 156.78 146.01 157.4 147.21C157.83 148.04 158.58 148.02 159.08 147.22C159.56 146.45 159.95 145.6 160.19 144.73C161.43 140.33 161.61 135.81 161.66 131.27Z" fill="black"/>
<path d="M112.04 111.62C122.84 111.65 131.55 120.46 131.51 131.31C131.47 142.15 122.67 150.93 111.91 150.87C101.09 150.8 92.44 142.01 92.51 131.14C92.57 120.29 101.28 111.59 112.04 111.62Z" fill="#F8D909"/>
<path d="M133.31 131.29C133.42 127.24 134.02 123.31 135.6 119.57C136.44 117.59 137.53 115.76 139.2 114.35C141.78 112.18 144.72 112.23 147.24 114.47C149.2 116.22 150.42 118.46 151.22 120.9C153.6 128.22 153.56 135.52 150.76 142.74C149.99 144.72 148.89 146.51 147.3 147.96C144.74 150.28 141.74 150.33 139.12 148.07C136.99 146.22 135.78 143.78 134.94 141.16C134.49 139.76 134.1 138.31 133.87 136.86C133.59 135.02 133.49 133.15 133.31 131.29Z" fill="#F8D909"/>
<path d="M161.66 131.27C161.62 135.81 161.43 140.34 160.19 144.74C159.95 145.61 159.56 146.47 159.08 147.23C158.58 148.03 157.83 148.05 157.4 147.22C156.79 146.02 156.24 144.75 155.95 143.44C154.71 137.9 154.58 132.27 154.98 126.64C155.19 123.64 155.79 120.67 156.29 117.7C156.42 116.93 156.8 116.18 157.19 115.5C157.82 114.4 158.72 114.37 159.25 115.52C159.88 116.9 160.47 118.38 160.68 119.87C161.21 123.65 161.51 127.45 161.91 131.25C161.82 131.25 161.74 131.26 161.66 131.27Z" fill="#F8D909"/>
</svg>
