<svg width="261" height="261" viewBox="0 0 261 261" fill="none" xmlns="http://www.w3.org/2000/svg">
<rect width="261" height="261" fill="#040405"/>
<rect width="90" height="27" fill="#F8D909"/>
<rect y="27" width="114" height="27" fill="#F8D909"/>
<rect y="109" width="185" height="27" fill="#F8D909"/>
<path d="M0 82H162V109H0V82Z" fill="#F8D909"/>
<path d="M0 54H139V82H0V54Z" fill="#F8D909"/>
<path d="M14.9517 116.636V120.472H4.42614V116.636H14.9517ZM6.62074 133V115.805C6.62074 114.541 6.85866 113.494 7.33452 112.663C7.81037 111.825 8.47088 111.2 9.31605 110.788C10.1612 110.369 11.1378 110.159 12.2457 110.159C12.9702 110.159 13.652 110.216 14.2912 110.33C14.9375 110.436 15.4169 110.532 15.7294 110.617L14.8984 114.431C14.7067 114.367 14.4723 114.314 14.1953 114.271C13.9254 114.229 13.6697 114.207 13.4283 114.207C12.8175 114.207 12.3984 114.342 12.1712 114.612C11.9439 114.882 11.8303 115.251 11.8303 115.72V133H6.62074ZM24.5797 133.309C22.8681 133.309 21.3908 132.972 20.1479 132.297C18.9121 131.615 17.9604 130.646 17.2928 129.388C16.6323 128.124 16.302 126.622 16.302 124.882C16.302 123.192 16.6358 121.714 17.3034 120.45C17.9711 119.179 18.9121 118.192 20.1266 117.489C21.3411 116.778 22.7722 116.423 24.4199 116.423C25.5847 116.423 26.65 116.604 27.6159 116.967C28.5819 117.329 29.4164 117.865 30.1195 118.575C30.8226 119.286 31.3695 120.163 31.7601 121.207C32.1507 122.244 32.3461 123.433 32.3461 124.776V126.075H18.1238V123.05H27.4988C27.4917 122.496 27.3603 122.002 27.1046 121.569C26.8489 121.136 26.4973 120.798 26.0499 120.557C25.6096 120.308 25.1017 120.184 24.5265 120.184C23.9441 120.184 23.4221 120.315 22.9604 120.578C22.4988 120.834 22.133 121.185 21.8631 121.633C21.5932 122.073 21.4512 122.574 21.437 123.135V126.214C21.437 126.881 21.5684 127.467 21.8311 127.972C22.0939 128.469 22.4668 128.856 22.9498 129.133C23.4327 129.41 24.008 129.548 24.6756 129.548C25.1373 129.548 25.5563 129.484 25.9327 129.357C26.3091 129.229 26.6323 129.04 26.9022 128.792C27.1721 128.543 27.3745 128.238 27.5094 127.876L32.2928 128.014C32.0939 129.087 31.6571 130.021 30.9824 130.816C30.3148 131.604 29.4377 132.219 28.351 132.659C27.2644 133.092 26.0073 133.309 24.5797 133.309ZM49.293 121.633L44.5096 121.761C44.4599 121.42 44.3249 121.118 44.1048 120.855C43.8846 120.585 43.5969 120.376 43.2418 120.227C42.8938 120.07 42.489 119.992 42.0273 119.992C41.4237 119.992 40.9087 120.113 40.4826 120.354C40.0636 120.596 39.8576 120.923 39.8647 121.335C39.8576 121.654 39.9854 121.931 40.2482 122.165C40.5181 122.4 40.9975 122.588 41.6864 122.73L44.8398 123.327C46.4734 123.639 47.6879 124.158 48.4833 124.882C49.2859 125.607 49.6907 126.565 49.6978 127.759C49.6907 128.881 49.3569 129.857 48.6964 130.688C48.043 131.519 47.1481 132.165 46.0117 132.627C44.8754 133.082 43.5756 133.309 42.1126 133.309C39.7759 133.309 37.9329 132.83 36.5835 131.871C35.2411 130.905 34.4741 129.612 34.2823 127.993L39.4279 127.865C39.5415 128.462 39.8363 128.916 40.3121 129.229C40.788 129.541 41.3952 129.697 42.1339 129.697C42.8015 129.697 43.3448 129.573 43.7638 129.325C44.1829 129.076 44.396 128.746 44.4031 128.334C44.396 127.964 44.2326 127.67 43.913 127.45C43.5934 127.222 43.0927 127.045 42.4109 126.917L39.5558 126.374C37.9151 126.075 36.6935 125.525 35.891 124.722C35.0884 123.913 34.6907 122.883 34.6978 121.633C34.6907 120.539 34.9819 119.605 35.5714 118.831C36.1609 118.05 36.9989 117.453 38.0856 117.041C39.1722 116.629 40.4542 116.423 41.9315 116.423C44.1474 116.423 45.8945 116.888 47.1729 117.819C48.4514 118.742 49.158 120.013 49.293 121.633ZM66.5488 121.633L61.7654 121.761C61.7157 121.42 61.5808 121.118 61.3606 120.855C61.1404 120.585 60.8528 120.376 60.4977 120.227C60.1497 120.07 59.7449 119.992 59.2832 119.992C58.6795 119.992 58.1646 120.113 57.7385 120.354C57.3194 120.596 57.1135 120.923 57.1206 121.335C57.1135 121.654 57.2413 121.931 57.5041 122.165C57.774 122.4 58.2534 122.588 58.9423 122.73L62.0957 123.327C63.7292 123.639 64.9437 124.158 65.7392 124.882C66.5417 125.607 66.9466 126.565 66.9537 127.759C66.9466 128.881 66.6127 129.857 65.9522 130.688C65.2988 131.519 64.4039 132.165 63.2676 132.627C62.1312 133.082 60.8315 133.309 59.3684 133.309C57.0318 133.309 55.1887 132.83 53.8393 131.871C52.497 130.905 51.7299 129.612 51.5382 127.993L56.6838 127.865C56.7974 128.462 57.0922 128.916 57.568 129.229C58.0439 129.541 58.6511 129.697 59.3897 129.697C60.0574 129.697 60.6007 129.573 61.0197 129.325C61.4387 129.076 61.6518 128.746 61.6589 128.334C61.6518 127.964 61.4885 127.67 61.1689 127.45C60.8493 127.222 60.3485 127.045 59.6667 126.917L56.8116 126.374C55.171 126.075 53.9494 125.525 53.1468 124.722C52.3443 123.913 51.9466 122.883 51.9537 121.633C51.9466 120.539 52.2377 119.605 52.8272 118.831C53.4167 118.05 54.2548 117.453 55.3414 117.041C56.4281 116.629 57.71 116.423 59.1873 116.423C61.4032 116.423 63.1504 116.888 64.4288 117.819C65.7072 118.742 66.4139 120.013 66.5488 121.633ZM69.5185 133V116.636H74.728V133H69.5185ZM72.1286 114.729C71.397 114.729 70.7685 114.488 70.2429 114.005C69.7173 113.515 69.4545 112.925 69.4545 112.237C69.4545 111.555 69.7173 110.972 70.2429 110.489C70.7685 109.999 71.397 109.754 72.1286 109.754C72.8672 109.754 73.4957 109.999 74.0142 110.489C74.5398 110.972 74.8026 111.555 74.8026 112.237C74.8026 112.925 74.5398 113.515 74.0142 114.005C73.4957 114.488 72.8672 114.729 72.1286 114.729ZM87.2804 116.636V120.472H76.9572V116.636H87.2804ZM79.1199 112.716H84.3294V127.854C84.3294 128.174 84.3791 128.433 84.4785 128.632C84.585 128.824 84.7377 128.962 84.9366 129.048C85.1355 129.126 85.3734 129.165 85.6504 129.165C85.8493 129.165 86.0588 129.147 86.2789 129.112C86.5062 129.069 86.6767 129.033 86.7903 129.005L87.5787 132.766C87.3301 132.837 86.9785 132.925 86.524 133.032C86.0765 133.138 85.5403 133.206 84.9153 133.234C83.6937 133.291 82.6461 133.149 81.7725 132.808C80.9061 132.46 80.242 131.92 79.7804 131.189C79.3258 130.457 79.1056 129.538 79.1199 128.43V112.716ZM97.4011 133.309C95.6824 133.309 94.2051 132.957 92.9693 132.254C91.7406 131.544 90.7924 130.557 90.1248 129.293C89.4643 128.021 89.1341 126.548 89.1341 124.871C89.1341 123.188 89.4643 121.714 90.1248 120.45C90.7924 119.179 91.7406 118.192 92.9693 117.489C94.2051 116.778 95.6824 116.423 97.4011 116.423C99.1199 116.423 100.594 116.778 101.822 117.489C103.058 118.192 104.006 119.179 104.667 120.45C105.334 121.714 105.668 123.188 105.668 124.871C105.668 126.548 105.334 128.021 104.667 129.293C104.006 130.557 103.058 131.544 101.822 132.254C100.594 132.957 99.1199 133.309 97.4011 133.309ZM97.4331 129.378C98.0581 129.378 98.5872 129.186 99.0204 128.803C99.4537 128.419 99.7839 127.886 100.011 127.205C100.246 126.523 100.363 125.734 100.363 124.839C100.363 123.93 100.246 123.135 100.011 122.453C99.7839 121.771 99.4537 121.239 99.0204 120.855C98.5872 120.472 98.0581 120.28 97.4331 120.28C96.7868 120.28 96.2399 120.472 95.7924 120.855C95.3521 121.239 95.0147 121.771 94.7804 122.453C94.5531 123.135 94.4395 123.93 94.4395 124.839C94.4395 125.734 94.5531 126.523 94.7804 127.205C95.0147 127.886 95.3521 128.419 95.7924 128.803C96.2399 129.186 96.7868 129.378 97.4331 129.378ZM111.267 133.309C110.499 133.309 109.843 133.039 109.296 132.499C108.756 131.96 108.49 131.306 108.497 130.539C108.49 129.786 108.756 129.143 109.296 128.611C109.843 128.071 110.499 127.801 111.267 127.801C111.991 127.801 112.63 128.071 113.184 128.611C113.745 129.143 114.029 129.786 114.036 130.539C114.029 131.05 113.894 131.516 113.632 131.935C113.376 132.354 113.039 132.687 112.619 132.936C112.208 133.185 111.757 133.309 111.267 133.309ZM125.116 133.309C123.39 133.309 121.909 132.954 120.673 132.244C119.445 131.533 118.5 130.546 117.84 129.282C117.179 128.011 116.849 126.54 116.849 124.871C116.849 123.195 117.179 121.725 117.84 120.461C118.507 119.19 119.455 118.199 120.684 117.489C121.92 116.778 123.394 116.423 125.105 116.423C126.618 116.423 127.936 116.697 129.058 117.244C130.187 117.79 131.068 118.565 131.7 119.566C132.339 120.56 132.676 121.729 132.712 123.071H127.843C127.744 122.233 127.46 121.576 126.991 121.1C126.529 120.624 125.926 120.386 125.18 120.386C124.576 120.386 124.047 120.557 123.593 120.898C123.138 121.232 122.783 121.729 122.527 122.389C122.279 123.043 122.154 123.852 122.154 124.818C122.154 125.784 122.279 126.601 122.527 127.268C122.783 127.929 123.138 128.43 123.593 128.771C124.047 129.104 124.576 129.271 125.18 129.271C125.663 129.271 126.089 129.168 126.458 128.962C126.835 128.756 127.144 128.455 127.385 128.057C127.627 127.652 127.779 127.162 127.843 126.587H132.712C132.662 127.936 132.325 129.115 131.7 130.124C131.082 131.132 130.212 131.917 129.09 132.478C127.975 133.032 126.65 133.309 125.116 133.309ZM140.587 111.182V133H135.378V111.182H140.587ZM154.461 125.937V116.636H159.66V133H154.695V129.953H154.525C154.162 130.955 153.545 131.75 152.671 132.339C151.805 132.922 150.757 133.213 149.528 133.213C148.413 133.213 147.433 132.957 146.588 132.446C145.743 131.935 145.086 131.221 144.617 130.305C144.148 129.381 143.91 128.302 143.903 127.066V116.636H149.113V126.043C149.12 126.931 149.354 127.631 149.816 128.142C150.278 128.653 150.906 128.909 151.702 128.909C152.22 128.909 152.685 128.795 153.097 128.568C153.516 128.334 153.846 127.996 154.088 127.556C154.336 127.109 154.461 126.569 154.461 125.937ZM162.975 133V111.182H168.185V119.438H168.292C168.505 118.941 168.806 118.462 169.197 118C169.595 117.538 170.099 117.162 170.71 116.871C171.328 116.572 172.066 116.423 172.926 116.423C174.062 116.423 175.124 116.722 176.111 117.318C177.105 117.915 177.908 118.835 178.519 120.077C179.13 121.32 179.435 122.904 179.435 124.829C179.435 126.683 179.14 128.234 178.551 129.484C177.968 130.734 177.18 131.672 176.186 132.297C175.199 132.922 174.101 133.234 172.894 133.234C172.07 133.234 171.356 133.099 170.752 132.83C170.149 132.56 169.641 132.205 169.229 131.764C168.824 131.324 168.512 130.852 168.292 130.347H168.132V133H162.975ZM168.078 124.818C168.078 125.699 168.196 126.466 168.43 127.119C168.672 127.773 169.016 128.281 169.463 128.643C169.918 128.998 170.461 129.175 171.093 129.175C171.733 129.175 172.276 128.998 172.723 128.643C173.171 128.281 173.508 127.773 173.735 127.119C173.97 126.466 174.087 125.699 174.087 124.818C174.087 123.937 173.97 123.174 173.735 122.528C173.508 121.881 173.171 121.381 172.723 121.026C172.283 120.67 171.74 120.493 171.093 120.493C170.454 120.493 169.911 120.667 169.463 121.015C169.016 121.363 168.672 121.86 168.43 122.506C168.196 123.153 168.078 123.923 168.078 124.818Z" fill="#040405"/>
</svg>
