<svg width="263" height="263" viewBox="0 0 263 263" fill="none" xmlns="http://www.w3.org/2000/svg">
<path d="M261.77 1.16016H0.77002V262.16H261.77V1.16016Z" fill="#040405" stroke="#040405" stroke-miterlimit="10"/>
<path d="M82.8201 180.09C83.3501 178.28 83.8101 176.7 84.2901 175.12C90.7901 153.49 97.2901 131.85 103.78 110.22C104.97 106.25 107.52 103.75 111.56 102.75C118.59 101 125.63 99.2501 132.65 97.4501C133.32 97.2801 134.02 96.8801 134.52 96.3901C138.48 92.4901 142.4 88.5401 146.33 84.6201C148.18 82.7701 150.01 82.7701 151.86 84.6301C160.7 93.4701 169.54 102.31 178.38 111.15C180.18 112.95 180.17 114.81 178.37 116.61C174.44 120.55 170.49 124.46 166.59 128.42C166.08 128.94 165.67 129.68 165.49 130.38C163.7 137.37 161.96 144.37 160.21 151.36C159.21 155.39 156.72 157.97 152.75 159.16C134.6 164.6 116.45 170.05 98.3 175.5C93.66 176.89 89.0201 178.29 84.3801 179.68C83.9601 179.81 83.5201 179.91 82.8201 180.09ZM94.0601 169.41C94.1001 169.47 94.1501 169.53 94.1901 169.59C94.4601 169.52 94.7301 169.46 94.9901 169.38C113.52 163.83 132.04 158.27 150.58 152.74C152.28 152.23 153.27 151.24 153.69 149.5C155.33 142.76 157.02 136.04 158.72 129.32C158.87 128.73 158.8 128.35 158.36 127.92C150.56 120.14 142.77 112.35 134.96 104.58C134.68 104.31 134.07 104.15 133.69 104.24C126.89 105.9 120.11 107.64 113.31 109.3C111.69 109.7 110.74 110.6 110.26 112.18C104.69 130.81 99.0901 149.44 93.5101 168.06C93.4401 168.3 93.4201 168.55 93.3201 169.07C93.6401 168.73 93.7601 168.61 93.8701 168.48C103.07 157.24 112.26 146.01 121.44 134.76C121.69 134.46 121.83 134.02 121.88 133.62C122.34 129.95 125.29 127.35 128.92 127.46C132.4 127.56 135.32 130.44 135.46 133.91C135.62 137.53 133.04 140.54 129.39 141.04C128.93 141.1 128.42 141.28 128.07 141.56C117.17 150.45 106.29 159.35 95.4101 168.25C94.9701 168.64 94.5101 169.03 94.0601 169.41Z" fill="#F8D909"/>
</svg>
