<svg width="262" height="262" viewBox="0 0 262 262" fill="none" xmlns="http://www.w3.org/2000/svg">
<path d="M261 0.22998H0V261.23H261V0.22998Z" fill="#040405" stroke="#040405" stroke-miterlimit="10"/>
<path d="M81.62 179.6C82.09 177.49 82.51 175.56 82.94 173.63C84.84 165.09 86.73 156.55 88.65 148.01C88.76 147.54 88.99 147.03 89.33 146.69C102.03 133.96 114.75 121.25 127.47 108.54C136 100.01 144.53 91.4699 153.07 82.9399C153.45 82.5599 153.85 82.1999 154.2 81.8599C162.61 90.2799 170.96 98.6399 179.39 107.09C179.23 107.27 179 107.55 178.74 107.8C168.61 117.93 158.48 128.05 148.35 138.18C137.83 148.69 127.28 159.17 116.84 169.76C114.99 171.64 113.05 172.79 110.44 173.33C101.14 175.25 91.88 177.4 82.61 179.46C82.35 179.52 82.09 179.54 81.62 179.6ZM113.29 164.1C125.52 151.87 137.7 139.69 149.73 127.66C144.38 122.29 138.94 116.84 133.64 111.52C121.53 123.62 109.36 135.78 97.13 148C98.82 149.52 99.72 151.63 100.45 153.8C100.96 155.32 101.36 156.88 101.75 158.44C101.89 159.01 102.12 159.31 102.72 159.43C106.64 160.2 110.43 161.3 113.29 164.1ZM146.66 98.3899C152.07 103.83 157.5 109.29 162.74 114.55C165.3 112.03 167.92 109.46 170.46 106.95C165.09 101.57 159.66 96.1399 154.29 90.7599C151.74 93.3199 149.14 95.9199 146.66 98.3899ZM138.23 106.69C143.71 112.18 149.13 117.62 154.46 122.97C155.7 121.76 156.97 120.51 158.17 119.34C152.75 113.91 147.32 108.48 141.87 103.02C140.66 104.24 139.42 105.49 138.23 106.69ZM93.87 154.04C93.79 154.05 93.72 154.07 93.64 154.08C92.36 159.81 91.09 165.54 89.76 171.5C95.77 170.16 101.52 168.88 107.27 167.6C106.85 167.14 106.45 166.87 106 166.77C103.22 166.1 100.44 165.41 97.63 164.85C96.85 164.69 96.61 164.41 96.45 163.66C95.91 161.09 95.27 158.54 94.62 156C94.47 155.32 94.13 154.69 93.87 154.04Z" fill="#F8D909"/>
</svg>
